<svg width="25" height="24" viewBox="0 0 25 24" fill="none" xmlns="http://www.w3.org/2000/svg">
<mask id="mask0_503_31962" style="mask-type:alpha" maskUnits="userSpaceOnUse" x="2" y="4" width="21" height="16">
<path d="M2.5 5.75C2.5 4.7835 3.2835 4 4.25 4H20.75C21.7165 4 22.5 4.7835 22.5 5.75V8H2.5V5.75Z" fill="#BABBBC"/>
<path fill-rule="evenodd" clip-rule="evenodd" d="M2.5 10V18.25C2.5 19.2165 3.2835 20 4.25 20H20.75C21.7165 20 22.5 19.2165 22.5 18.25V10H2.5ZM4 16C4 15.4477 4.44772 15 5 15H9C9.55228 15 10 15.4477 10 16C10 16.5523 9.55228 17 9 17H5C4.44772 17 4 16.5523 4 16Z" fill="#BABBBC"/>
</mask>
<g mask="url(#mask0_503_31962)">
<rect x="3.25" y="4.75" width="18.5" height="14.5" rx="1" fill="#121331" stroke="#121331" stroke-width="1.5"/>
</g>
</svg>
